<?xml version="1.0" encoding="UTF-8"?>
<svg width="726px" height="685px" viewBox="0 0 726 685" version="1.1" xmlns="http://www.w3.org/2000/svg" xmlns:xlink="http://www.w3.org/1999/xlink">
    <title>shape-avert-orange-bg</title>
    <defs>
        <linearGradient x1="84.7512748%" y1="73.5926907%" x2="14.5461491%" y2="17.1834045%" id="linearGradient-1">
            <stop stop-color="#E65022" offset="0%"></stop>
            <stop stop-color="#D25022" offset="100%"></stop>
        </linearGradient>
    </defs>
    <g id="Pillar-Page-/-Safety-Training" stroke="none" stroke-width="1" fill="none" fill-rule="evenodd">
        <path d="M355.849839,681.777786 C464.528025,664.298974 602.582962,612.35948 675.115851,526.686388 L675.115851,526.686388 C697.342948,500.430234 712.75383,469.193987 718.676132,435.222057 L718.676132,435.222057 C732.085115,358.263943 730.63973,286.509761 663.006758,235.249827 L663.006758,235.249827 C619.187073,202.043466 566.912938,200.166275 519.733247,176.458761 L519.733247,176.458761 C430.230814,131.491512 398.295585,11.4519701 288.222556,0.751684453 L288.222556,0.751684453 C207.508033,-7.09631583 134.057341,47.7636339 84.6777855,106.679152 L84.6777855,106.679152 C34.8586057,166.120731 3.12009999,242.3228 0.224850056,320.135028 L0.224850056,320.135028 C-0.476369175,339.003033 0.456518213,357.927773 3.10799428,376.625963 L3.10799428,376.625963 C23.0384924,517.021822 159.847037,674.605597 308.157958,684.020547 L308.157958,684.020547 C315.28242,684.473981 322.43369,684.582305 329.597424,684.332142 L329.597424,684.332142 C338.333076,684.027086 347.091725,683.188313 355.849839,681.777786" id="shape-avert-orange-bg" fill="url(#linearGradient-1)"></path>
    </g>
</svg>