<?xml version="1.0" encoding="UTF-8"?>
<svg width="1047px" height="1078px" viewBox="0 0 1047 1078" version="1.1" xmlns="http://www.w3.org/2000/svg" xmlns:xlink="http://www.w3.org/1999/xlink">
    <title>solutions-hero-green-bg</title>
    <defs>
        <linearGradient x1="83.2045351%" y1="80.2697057%" x2="5.02377577%" y2="12.8371835%" id="linearGradient-1">
            <stop stop-color="#4899F1" offset="0%"></stop>
            <stop stop-color="#96FFE9" offset="100%"></stop>
        </linearGradient>
        <linearGradient x1="70.648904%" y1="67.4305909%" x2="18.9664539%" y2="24.886914%" id="linearGradient-2">
            <stop stop-color="#11998E" offset="0%"></stop>
            <stop stop-color="#38EF7D" offset="100%"></stop>
        </linearGradient>
    </defs>
    <g id="Pillar-Page-/-Safety-Training" stroke="none" stroke-width="1" fill="none" fill-rule="evenodd">
        <g id="solutions-hero-green-bg" transform="translate(523.500000, 539.000000) rotate(-59.000000) translate(-523.500000, -539.000000) translate(115.000000, 174.000000)">
            <path d="M355.797656,718.350245 L415.879324,723.856792 L427.84717,724.94722 L426.95804,725.351669 C423.4047,726.942516 419.88923,728.210481 416.402719,729.175178 L416.402719,729.175178 L415.398978,729.084498 L367.570644,724.697849 L367.559316,724.697849 L367.559316,724.697849 L366.47746,724.19933 C362.875875,722.510286 359.319912,720.549236 355.797656,718.350245 L355.797656,718.350245 Z M337.635169,704.802642 L416.9601,712.07065 L445.286872,714.6641 L444.29458,715.375958 C442.312135,716.783469 440.342295,718.093426 438.380777,719.300118 L438.380777,719.300118 L416.482021,717.296089 L344.881131,710.737653 C342.44995,708.860575 340.034629,706.879216 337.635169,704.802642 L337.635169,704.802642 Z M323.856966,691.651765 L418.043143,700.270906 L458.253927,703.954784 L457.348224,704.786542 C455.839802,706.161017 454.33715,707.476193 452.845512,708.726822 L452.845512,708.726822 L417.562798,705.496345 L329.630171,697.446222 C327.690664,695.569144 325.771549,693.646727 323.856966,691.651765 L323.856966,691.651765 Z M312.124761,678.691316 L419.110325,688.484764 L469.06396,693.057306 L468.144543,694.05807 C466.918267,695.381346 465.691121,696.661386 464.471225,697.910957 L464.471225,697.910957 L418.636777,693.710203 L317.13893,684.413229 C315.457722,682.542952 313.785577,680.634137 312.124761,678.691316 L312.124761,678.691316 Z M301.636469,665.841951 L302.36605,665.907694 L420.193367,676.696355 L478.516791,682.035144 L477.910653,682.803741 C477.501973,683.313733 477.085573,683.82003 476.670181,684.32935 L476.670181,684.32935 L475.936068,685.205756 C475.44666,685.78678 474.957251,686.362095 474.467843,686.936402 L474.467843,686.936402 L419.717554,681.924061 L306.170293,671.527591 C304.652221,669.655048 303.145478,667.759834 301.636469,665.841951 L301.636469,665.841951 Z M291.966123,653.074197 L303.440029,654.121552 L421.27641,664.910213 L486.81634,670.913233 L485.951379,672.159482 C485.07962,673.403535 484.18747,674.639618 483.274927,675.855297 L483.274927,675.855297 L420.800596,670.137919 L302.959684,659.346991 L296.169143,658.725832 C294.768892,656.857823 293.36864,654.978478 291.966123,653.074197 L291.966123,653.074197 Z M282.846361,640.335914 L304.520806,642.321808 L422.348123,653.112736 L494.112149,659.687041 L493.088772,661.358241 C492.400982,662.4684 491.702115,663.571171 490.992171,664.669911 L490.992171,664.669911 L421.867778,658.340442 L304.042726,647.547247 L286.827336,645.964879 C285.483729,644.105938 284.165045,642.219793 282.846361,640.335914 L282.846361,640.335914 Z M274.11858,627.65204 L305.603848,630.533399 L423.4289,641.326594 L500.610404,648.397372 L499.921996,649.6574 C499.229836,650.915586 498.525887,652.167396 497.805369,653.405179 L497.805369,653.405179 L422.950821,646.5543 L305.123503,635.761105 L277.943215,633.271937 C276.660784,631.406194 275.389682,629.529117 274.11858,627.65204 L274.11858,627.65204 Z M265.660426,614.993102 L306.67103,618.749524 L424.511942,629.538185 L506.453849,637.039694 L505.628098,638.72777 C505.071723,639.852035 504.505278,640.972942 503.938834,642.083773 L503.938834,642.083773 L424.033863,634.765891 L306.197482,623.974963 L269.392164,620.608465 C268.145986,618.742723 266.90887,616.863378 265.660426,614.993102 L265.660426,614.993102 Z M257.367674,602.350033 L307.756338,606.963382 L425.592719,617.752043 L511.805619,625.64801 L511.045492,627.340033 C510.534769,628.465641 510.015654,629.586548 509.485461,630.703424 L509.485461,630.703424 L425.103311,622.979749 L307.278259,612.191088 L261.031439,607.958596 C259.805652,606.076984 258.579866,604.208975 257.367674,602.350033 L257.367674,602.350033 Z M249.120238,589.688829 L308.837115,595.161371 L426.664433,605.954566 L516.76541,614.201918 L516.060417,615.893773 C515.585946,617.022068 515.103083,618.151035 514.615185,619.280002 L514.615185,619.280002 L426.186353,611.182272 L308.359036,600.389077 L252.772674,595.297391 C251.546887,593.418047 250.332429,591.545503 249.120238,589.688829 L249.120238,589.688829 Z M240.829751,577.043493 L309.920158,583.375229 L427.745209,594.168424 L521.421586,602.744492 L520.752174,604.440881 C520.301536,605.571191 519.843849,606.701165 519.389182,607.836177 L519.389182,607.836177 L427.26713,599.39613 L309.439812,588.602935 L244.513908,582.649788 C243.276793,580.770444 242.053272,578.900167 240.829751,577.043493 L240.829751,577.043493 Z M232.360269,564.389089 L310.989605,571.589087 L428.828252,582.382282 L525.85345,591.266662 L524.887945,593.814772 L524.887945,593.814772 L523.913943,596.362882 L428.350173,587.607721 L310.511526,576.814526 L236.139588,569.999919 C234.877549,568.097904 233.617776,566.232162 232.360269,564.389089 L232.360269,564.389089 Z M223.537324,551.689346 L312.072648,559.802945 L429.8977,570.593873 L530.156165,579.77523 L529.213318,582.32589 L529.213318,582.32589 L528.261974,584.878251 L429.421886,575.821579 L311.594568,565.028384 L227.506969,557.331913 C226.181489,555.41403 224.853742,553.539219 223.537324,551.689346 L223.537324,551.689346 Z M214.07543,538.926126 L313.153425,548.005468 L430.980742,558.807731 L534.363717,568.27473 L533.834028,569.7618 C533.480063,570.749541 533.125091,571.728885 532.77314,572.693117 L532.77314,572.693117 L532.644274,573.035434 L532.644274,573.035434 L532.517107,573.377751 L430.502663,564.035437 L312.675345,553.230907 L218.373613,544.595897 C216.932578,542.648543 215.496074,540.76013 214.07543,538.926126 L214.07543,538.926126 Z M203.448925,526.07676 L314.225138,536.217059 L432.061519,547.007987 L538.319768,556.737959 L537.741323,558.46004 C537.355301,559.602945 536.968608,560.735438 536.581915,561.856849 L536.581915,561.856849 L431.585705,552.235693 L313.744793,541.444765 L208.358869,531.791872 C206.718445,529.803711 205.080287,527.892629 203.448925,526.07676 L203.448925,526.07676 Z M190.01512,512.959888 L197.480863,513.639989 L315.305915,524.430917 L433.133232,535.224112 L542.316602,545.22159 L541.705178,546.929818 C541.30103,548.067685 540.904267,549.203201 540.517574,550.333679 L540.517574,550.333679 L432.655153,540.451818 L314.827835,529.658623 L197.002784,518.867695 L196.54283,518.829156 C194.349556,516.677771 192.167611,514.714548 190.01512,512.959888 L190.01512,512.959888 Z M171.8549,499.410019 L198.550311,501.853847 L316.388957,512.644775 L434.216275,523.43797 L546.62838,533.727891 L545.958549,535.421677 C545.515631,536.552323 545.080098,537.68532 544.652621,538.81731 L544.652621,538.81731 L433.738196,528.663409 L315.910878,517.872481 L198.072231,507.079286 L180.231486,505.449312 C177.569195,503.488355 174.766426,501.472991 171.8549,499.410019 L171.8549,499.410019 Z M152.038395,485.696926 L199.631087,490.054103 L317.458405,500.858633 L435.299317,511.647294 L551.61536,522.304469 L551.02247,523.556315 C550.433332,524.812057 549.855983,526.079594 549.295202,527.359883 L549.295202,527.359883 L434.818972,516.875 L316.982591,506.084072 L199.155274,495.293144 L160.913452,491.786092 C158.029115,489.788864 155.070007,487.764431 152.038395,485.696926 L152.038395,485.696926 Z M131.979451,471.967963 L200.71413,478.267961 L318.541448,489.061156 L436.380094,499.852084 L554.205146,510.64528 L557.766951,510.971728 L557.162477,511.955824 C556.365793,513.272644 555.604491,514.608905 554.85769,515.972734 L554.85769,515.972734 L553.727067,515.870719 L435.902015,505.077523 L318.063368,494.284328 L200.236051,483.4934 L140.840914,478.05713 C137.920324,476.064435 134.961217,474.028668 131.979451,471.967963 L131.979451,471.967963 Z M112.554926,458.313812 L201.785844,466.481819 L319.622224,477.27048 L437.449542,488.063675 L555.288188,498.856871 L565.853517,499.827147 L565.17693,500.615634 C564.058202,501.940308 562.98353,503.317196 561.945048,504.73974 L561.945048,504.73974 L554.810109,504.080043 L436.971462,493.291381 L319.146411,482.498186 L201.307764,471.707258 L121.038003,464.355371 C118.223905,462.369478 115.396213,460.369982 112.554926,458.313812 L112.554926,458.313812 Z M94.179456,444.743539 L202.868886,454.695677 L320.705267,465.484338 L438.530319,476.277533 L556.357636,487.070729 L577.844021,489.033952 L577.024198,489.60402 C575.391846,490.759279 573.803489,492.005668 572.263406,493.350323 L572.263406,493.350323 L572.033713,493.550953 L572.033713,493.550953 L571.812516,493.758384 L555.879557,492.298435 L438.054505,481.505239 L320.227187,470.712044 L202.388541,459.923383 L102.157265,450.742026 C99.4949741,448.767467 96.8326835,446.765705 94.179456,444.743539 L94.179456,444.743539 Z M77.2427562,431.302486 L86.1246108,432.11634 L203.949663,442.909535 L321.77698,453.700463 L439.615627,464.491391 L557.440679,475.284587 L599.443694,479.129422 L598.381832,479.451441 C594.847795,480.543281 591.370105,481.821795 587.987914,483.355113 L587.987914,483.355113 L587.976585,483.355113 L556.962599,480.512293 L439.135282,469.719097 L321.298901,458.925902 L203.471583,448.134974 L85.6329368,437.341779 L84.5816152,437.242031 C82.1119158,435.29921 79.6716716,433.308783 77.2427562,431.302486 L77.2427562,431.302486 Z M61.8853046,417.99972 L87.1917929,420.318863 L205.032705,431.107524 L322.857757,441.900719 L440.685075,452.693914 L558.523721,463.482576 L640.726192,471.013555 L638.990232,471.366887 C633.178994,472.520044 627.126367,473.438835 621.002584,474.477534 L621.002584,474.477534 L558.043376,468.710282 L440.206995,457.92162 L322.379678,447.128425 L204.55236,436.33523 L86.7159792,425.546569 L68.4945826,423.871255 C66.2582585,421.937502 64.0559211,419.972012 61.8853046,417.99972 L61.8853046,417.99972 Z M48.2634398,404.869246 L88.2748353,408.532721 L206.102153,419.325916 L323.938534,430.114577 L441.765851,440.907772 L559.593169,451.698701 L672.265839,462.018093 L670.482869,462.652304 C666.91282,463.904839 663.318277,465.062676 659.702093,466.137235 L659.702093,466.137235 L559.11509,456.92414 L441.287772,446.133211 L323.46272,435.342283 L205.626339,424.549088 L87.7967559,413.75816 L54.0842267,410.67277 C52.1062014,408.75262 50.1621628,406.818868 48.2634398,404.869246 L48.2634398,404.869246 Z M36.3522384,391.886127 L89.355612,396.744312 L207.18293,407.537507 L325.010247,418.326168 L442.846628,429.119364 L560.673946,439.910292 L678.514858,450.703487 L695.329206,452.240514 L693.760919,453.014044 C691.142738,454.289128 688.502791,455.494417 685.842388,456.643031 L685.842388,456.643031 L685.831059,456.643031 L678.02545,455.928926 L560.198132,445.135731 L442.370814,434.34707 L324.532168,423.553874 L206.70485,412.760679 L88.8797984,401.972018 L41.416255,397.628443 C39.6851996,395.726428 37.9903968,393.808545 36.3522384,391.886127 L36.3522384,391.886127 Z M26.2196736,379.082101 L90.4295914,384.95817 L208.265972,395.749098 L326.09329,406.540026 L443.920607,417.333222 L561.756988,428.12415 L679.584306,438.915078 L713.498489,442.023137 L711.991619,442.968386 C709.981275,444.219409 707.96455,445.432708 705.921724,446.602481 L705.921724,446.602481 L705.910395,446.602481 L679.106226,444.142784 L561.281175,433.351856 L443.440262,422.560928 L325.61521,411.767732 L207.787893,400.974537 L89.9492462,390.185876 L30.495199,384.740538 C29.0247083,382.865727 27.601799,380.98865 26.2196736,379.082101 L26.2196736,379.082101 Z M17.8340247,366.409562 L91.5103681,373.160693 L209.337686,383.949354 L327.174066,394.742549 L445.001384,405.533478 L562.837765,416.326673 L680.665082,427.119868 L728.400519,431.497448 L727.158836,432.460833 C725.497603,433.738334 723.815489,434.986817 722.133374,436.194676 L722.133374,436.194676 L680.187003,432.34304 L562.361951,421.552112 L444.521039,410.758917 L326.695987,399.970255 L208.857341,389.17706 L91.0322887,378.388399 L21.3414509,372.004522 C20.1179301,370.147848 18.9533196,368.284372 17.8340247,366.409562 L17.8340247,366.409562 Z M11.179431,353.916115 L92.5911448,361.372284 L210.416197,372.163212 L328.243514,382.956407 L446.084427,393.747336 L563.909478,404.538264 L681.748125,415.329192 L740.955202,420.758661 L739.906255,421.73641 C738.502995,423.032555 737.081173,424.298811 735.64195,425.537501 L735.64195,425.537501 L681.26778,420.556898 L563.431399,409.76597 L445.604081,398.975042 L327.767701,388.184113 L209.940383,377.390918 L92.1130654,366.59999 L13.9187581,359.438532 C12.9580677,357.606794 12.0381614,355.763722 11.179431,353.916115 L11.179431,353.916115 Z M6.21284296,341.581359 L93.6628584,349.586142 L211.499239,360.37707 L329.326557,371.170265 L447.165203,381.961194 L564.992521,392.754389 L682.817573,403.545317 L751.731248,409.854383 L750.92633,410.736247 L750.92633,410.736247 L750.111216,411.611309 L749.129966,412.650939 C748.473058,413.341787 747.81145,414.027933 747.149843,414.708034 L747.149843,414.708034 L682.341759,408.773023 L564.514441,397.979828 L446.687124,387.1889 L328.850743,376.395704 L211.023425,365.602509 L93.184779,354.811581 L8.20899447,347.028964 C7.49527401,345.215363 6.83593225,343.399494 6.21284296,341.581359 L6.21284296,341.581359 Z M2.90707105,329.38489 L94.7459008,337.797733 L212.582282,348.590928 L330.409599,359.381856 L448.236917,370.175052 L566.073298,380.968247 L683.900615,391.759175 L761.186345,398.83222 L760.189473,400.070145 C759.187928,401.303252 758.171726,402.522333 757.135132,403.731211 L757.135132,403.731211 L683.422536,396.984614 L565.597484,386.191419 L447.758837,375.400491 L329.93152,364.609562 L212.092873,353.816367 L94.2655556,343.025439 L4.18723632,334.77582 C3.70689112,332.996223 3.28319041,331.198491 2.90707105,329.38489 L2.90707105,329.38489 Z M1.21679974,317.340309 L95.8266775,326.002523 L213.653995,336.793451 L331.490376,347.584379 L449.317694,358.377575 L567.145011,369.168503 L684.981392,379.968499 L769.581057,387.723912 L768.399243,389.377312 C767.605046,390.47706 766.799435,391.57177 765.989797,392.661442 L765.989797,392.661442 L684.505578,385.196205 L566.664666,374.407544 L448.839614,363.603014 L331.014562,352.812085 L213.17365,342.01889 L95.3463323,331.225695 L1.77871299,322.656429 C1.53400884,320.892701 1.35954383,319.12444 1.21679974,317.340309 L1.21679974,317.340309 Z M1.09671344,305.440817 L96.9074542,314.214114 L214.734772,325.005042 L332.56209,335.795971 L450.39847,346.589166 L568.225788,357.380094 L686.053106,368.173289 L777.064926,376.506787 L776.004793,378.172866 C775.293842,379.281849 774.574835,380.387139 773.849785,381.48739 L773.849785,381.48739 L685.57276,373.398728 L567.747708,362.6078 L449.920391,351.814605 L332.081744,341.023677 L214.256692,330.232748 L96.4293748,319.439553 L0.960766689,310.700261 L0.960766689,309.841068 C0.960766689,308.378852 1.00834805,306.907568 1.09671344,305.440817 L1.09671344,305.440817 Z M2.48563611,293.679612 L97.976902,302.427972 L215.817814,313.2189 L333.645132,324.012096 L451.470184,334.803024 L569.30883,345.593952 L687.136148,356.38488 L783.690064,365.235255 L782.760172,366.911997 C782.134985,368.02669 781.499056,369.136009 780.851043,370.245329 L780.851043,370.245329 L686.658069,361.612586 L568.828485,350.821658 L450.992104,340.03073 L333.167053,329.237535 L215.339735,318.446606 L97.5010884,307.655678 L1.67901871,298.884648 C1.89426773,297.154926 2.15483235,295.425204 2.48563611,293.679612 L2.48563611,293.679612 Z M5.33598639,282.056695 L99.0622103,290.64183 L216.887262,301.435025 L334.725909,312.225954 L452.553226,323.016882 L570.378278,333.810077 L688.216925,344.598738 L789.594685,353.884377 L788.762808,355.569599 C788.204755,356.690674 787.639318,357.807046 787.06381,358.919388 L787.06381,358.919388 L687.738845,349.826444 L569.902465,339.035516 L452.075147,328.244588 L334.247829,317.451393 L216.411449,306.660464 L98.5841309,295.867269 L3.89268502,287.191454 C4.31865152,285.482134 4.80579405,283.770548 5.33598639,282.056695 L5.33598639,282.056695 Z M9.63870116,270.553928 L100.142987,278.842086 L217.970305,289.635281 L335.795356,300.42621 L453.634003,311.228473 L571.461321,322.021668 L689.299967,332.812596 L794.803712,342.479092 L794.075389,344.171786 C793.584471,345.299242 793.082475,346.423675 792.567387,347.539039 L792.567387,347.539039 L688.821888,338.038035 L570.983241,327.247107 L453.158189,316.456179 L335.317277,305.653916 L217.492225,294.86072 L99.6649076,284.069792 L7.55645005,275.638813 C8.19766557,273.952163 8.88419668,272.26098 9.63870116,270.553928 L9.63870116,270.553928 Z M15.3076808,259.184914 L101.214701,267.055944 L219.051081,277.849139 L336.878399,288.640068 L454.705717,299.433263 L572.542097,310.221924 L690.369415,321.015119 L799.387383,331.001262 L798.753216,332.704536 C798.324732,333.836525 797.885171,334.96247 797.436547,336.088414 L797.436547,336.088414 L689.891336,326.242825 L572.066284,315.44963 L454.225371,304.658702 L336.40032,293.865507 L218.575268,283.074578 L100.734355,272.281383 L12.6249982,264.20859 C13.4656023,262.542344 14.3651167,260.871564 15.3076808,259.184914 L15.3076808,259.184914 Z M22.3225333,247.942853 L102.295477,255.269802 L220.122795,266.06073 L337.959176,276.851659 L455.786493,287.644854 L573.62514,298.435782 L691.452457,309.228977 L803.395546,319.484893 L802.834892,321.197235 C802.458773,322.336278 802.077618,323.470282 801.689415,324.599249 L801.689415,324.599249 L690.974378,314.454416 L573.14706,303.661221 L455.308414,292.870293 L337.483362,282.079365 L219.644715,271.288436 L101.817398,260.495241 L19.0484823,252.914387 C20.088475,251.257209 21.1783148,249.609099 22.3225333,247.942853 L22.3225333,247.942853 Z M30.6334116,236.818675 L103.37852,243.481393 L221.203572,254.274589 L339.042218,265.065517 L456.869536,275.856445 L574.696853,286.64964 L692.533234,297.440568 L806.834999,307.911849 L806.357172,309.622932 C806.035431,310.763486 805.706641,311.904039 805.366774,313.046608 L805.366774,313.046608 L692.055155,302.666007 L574.218774,291.875079 L456.391456,281.084151 L338.55281,270.293223 L220.727758,259.502294 L102.90044,248.709099 L26.7929158,241.738069 C28.0232339,240.101294 29.3101965,238.459984 30.6334116,236.818675 L30.6334116,236.818675 Z M40.215392,225.801047 L104.447968,231.683916 L222.286614,242.488447 L340.113932,253.279375 L457.952578,264.070303 L575.779896,274.863498 L693.604948,285.654426 L809.732931,296.288931 L809.342378,298.012105 C809.075855,299.159711 808.797919,300.305303 808.513942,301.450894 L808.513942,301.450894 L693.126868,290.882132 L575.299551,280.088937 L457.474499,269.298009 L339.635852,258.507081 L221.808535,247.713886 L103.969888,236.911622 L35.822046,230.663766 C37.2404238,229.04966 38.706383,227.433288 40.215392,225.801047 L40.215392,225.801047 Z M51.0616772,214.912638 L105.53101,219.897774 L223.367391,230.688703 L341.194708,241.479631 L459.022026,252.272826 L576.860673,263.063754 L694.68799,273.854682 L812.145986,284.61614 L811.821644,286.339061 C811.601947,287.487675 811.374866,288.636289 811.137714,289.784904 L811.137714,289.784904 L694.207645,279.082388 L576.380327,268.289193 L458.543947,257.500532 L340.716629,246.707337 L222.891577,235.916409 L105.052931,225.12548 L46.0928233,219.725482 C47.7196528,218.095508 49.3850005,216.499539 51.0616772,214.912638 L51.0616772,214.912638 Z M63.0884334,204.130777 L106.611787,208.111632 L224.439104,218.902561 L342.275485,229.693489 L460.102803,240.486684 L577.93012,251.277612 L695.766501,262.06854 L813.593819,272.861736 L814.042443,272.900275 L813.7969,274.636462 C813.628057,275.792465 813.448809,276.946117 813.258483,278.100777 L813.258483,278.100777 L813.118005,278.087175 L695.290687,267.296246 L577.452041,256.505318 L459.626989,245.71439 L341.799671,234.921195 L223.958759,224.130267 L106.133707,213.337071 L57.6347027,208.893748 L59.4404449,207.294168 C60.6461751,206.23254 61.8566047,205.179643 63.0771045,204.130777 L63.0771045,204.130777 L63.0884334,204.130777 Z M75.7496077,193.39199 L107.694829,196.323223 L225.519881,207.114152 L343.347199,217.907347 L461.185845,228.698275 L579.013163,239.49147 L696.838215,250.284665 L814.676861,261.075594 L815.467618,261.145871 L815.292734,262.889867 C815.171556,264.050404 815.041652,265.207582 814.905705,266.366776 L814.905705,266.366776 L814.201048,266.3033 L696.360135,255.510104 L578.532818,244.716909 L460.710032,233.923714 L342.869119,223.132786 L225.044067,212.341858 L107.21675,201.548662 L70.0942228,198.150427 L72.9196495,195.766958 L72.9196495,195.766958 L75.7382788,193.39199 L75.7496077,193.39199 Z M87.703859,182.601062 L108.764277,184.537081 L226.605189,195.32801 L344.430241,206.121205 L462.257559,216.912133 L580.096205,227.703061 L697.921257,238.496257 L815.759904,249.287185 L816.419245,249.346127 L816.315775,251.089871 C816.241256,252.254942 816.15566,253.423707 816.058987,254.587435 L816.058987,254.587435 L815.281824,254.512624 L697.443178,243.721695 L579.61586,232.930767 L461.779479,222.139839 L343.952162,211.346644 L226.124844,200.555716 L108.288463,189.764787 L82.4608458,187.400305 L87.703859,182.601062 Z M99.8824224,171.830537 L109.845054,172.737337 L227.672371,183.530533 L345.513284,194.321461 L581.163387,215.907851 L699.0043,226.69878 L816.829351,237.489708 L816.899591,237.496509 L816.857884,239.247054 C816.827841,240.414644 816.793099,241.583913 816.752315,242.75822 L816.752315,242.75822 L816.351272,242.715147 L698.523954,231.924219 L580.687574,221.131023 L345.032938,199.549167 L227.196558,188.758239 L109.36924,177.965043 L94.333529,176.59124 C96.1982653,174.979402 98.049407,173.381166 99.8824224,171.830537 L99.8824224,171.830537 Z M112.81549,161.121221 L228.755414,171.744391 L346.582731,182.535319 L464.421378,193.326247 L582.24643,204.119442 L700.085076,214.910371 L816.897325,225.612886 L816.926864,227.368301 C816.943647,228.539081 816.954725,229.710869 816.960767,230.883665 L816.960767,230.883665 L699.606997,220.138077 L581.76835,209.344881 L463.941033,198.553953 L346.104652,187.763025 L228.277334,176.96983 L110.452283,166.178901 L106.996969,165.866055 C108.952337,164.247416 110.889578,162.676384 112.81549,161.121221 L112.81549,161.121221 Z M126.763627,150.51392 L229.83619,159.958249 L347.663508,170.749177 L465.502155,181.542372 L583.327206,192.3333 L701.154524,203.124229 L816.412448,213.681656 L816.519863,215.442192 C816.586158,216.616667 816.642047,217.792485 816.688873,218.968304 L816.688873,218.968304 L700.67871,208.351935 L582.851393,197.561006 L465.012746,186.767811 L347.187694,175.976883 L229.360377,165.183688 L120.423977,155.202079 C122.547012,153.594775 124.658718,152.037345 126.763627,150.51392 L126.763627,150.51392 Z M142.467743,140.07211 L230.91017,148.16984 L348.746551,158.963035 L466.573868,169.75623 L584.410249,180.547158 L702.237567,191.338087 L815.442695,201.702819 L815.615901,203.471668 C815.729693,204.651684 815.838451,205.834051 815.932103,207.023472 L815.932103,207.023472 L701.761753,196.565793 L583.934435,185.772597 L466.093523,174.981669 L348.268471,164.188474 L230.429825,153.397546 L135.210452,144.678657 L136.657814,143.72298 C138.587098,142.460351 140.514641,141.24415 142.445085,140.074377 L142.445085,140.074377 L142.467743,140.07211 Z M161.602249,129.92501 L231.990947,136.372363 L349.827327,147.165558 L467.654645,157.956486 L585.481963,168.747414 L703.320609,179.54061 L813.940483,189.669573 L814.136933,191.001543 C814.329064,192.335709 814.507494,193.675932 814.665532,195.01743 L814.665532,195.01743 L702.84253,184.766049 L585.001617,173.97512 L467.176566,163.184192 L349.349248,152.390997 L231.512867,141.600069 L152.516474,134.366066 C155.52996,132.776898 158.550244,131.294279 161.602249,129.92501 L161.602249,129.92501 Z M190.137472,120.65524 L233.073989,124.586221 L350.896775,135.377149 L468.737687,146.168077 L586.565005,156.961272 L704.390057,167.754468 L811.933003,177.600056 L812.265653,179.381836 C812.482832,180.57008 812.691283,181.760004 812.893693,182.956981 L812.893693,182.956981 L703.911977,172.979907 L586.08466,162.186711 L468.257342,151.395783 L350.420961,140.604855 L232.593644,129.81166 L175.380452,124.568085 L176.692822,124.144363 C181.075292,122.754015 185.537941,121.584917 190.114815,120.657507 L190.114815,120.657507 L190.137472,120.65524 Z M273.93052,116.443151 L351.979818,123.591007 L469.807135,134.381935 L587.645782,145.172864 L705.473099,155.966059 L809.33642,165.480665 L809.657877,166.821526 C809.974378,168.164937 810.275585,169.515361 810.557675,170.867061 L810.557675,170.867061 L704.992754,161.193765 L587.167702,150.400569 L469.331322,139.609641 L351.504004,128.818713 L240.351672,118.633074 L241.979389,118.645028 C252.819541,118.683627 263.434999,117.902668 273.894268,116.443151 L273.894268,116.443151 L273.93052,116.443151 Z M312.417046,108.082448 L353.06286,111.804865 L470.890178,122.595793 L588.717495,133.388989 L706.553876,144.17765 L806.139405,153.300065 L806.529615,154.645459 C806.915576,155.993121 807.288155,157.347796 807.641617,158.711398 L807.641617,158.711398 L706.078062,149.405356 L588.239416,138.614428 L470.412098,127.823499 L352.587046,117.030304 L297.503687,111.983958 C302.504262,110.814185 307.47085,109.506125 312.417046,108.082448 L312.417046,108.082448 Z M340.524038,98.7628042 L354.134574,100.007388 L471.970954,110.796049 L589.798272,121.589245 L707.62559,132.393775 L802.280783,141.062789 L802.749056,142.412364 C803.211593,143.766189 803.657244,145.131491 804.088875,146.496793 L804.088875,146.496793 L707.145244,137.621481 L589.320193,126.816951 L471.495141,116.023755 L353.654228,105.232827 L328.726125,102.943155 L331.086505,102.138207 C334.232422,101.054471 337.373698,99.9289499 340.514975,98.7628042 L340.514975,98.7628042 L340.524038,98.7628042 Z M364.804128,89.0985758 L473.042668,99.0121744 L590.881314,109.803103 L708.706366,120.594031 L797.690314,128.746169 L798.238137,130.100632 C798.780012,131.459345 799.304682,132.830173 799.817881,134.207376 L799.817881,134.207376 L708.228287,125.821737 L590.403235,115.030809 L472.562323,104.23988 L354.737271,93.4466852 L354.336228,93.4058791 C357.832325,92.0026051 361.312562,90.56986 364.804128,89.0985758 L364.804128,89.0985758 Z M387.357695,79.2733904 L474.12571,87.2260324 L591.962091,98.0169606 L709.789409,108.807889 L792.261507,116.363806 L792.907856,117.728186 C793.548187,119.096676 794.170993,120.47728 794.781054,121.868086 L794.781054,121.868086 L709.309064,114.035595 L591.472683,103.2424 L473.647631,92.4492044 L377.492492,83.6441697 C380.775606,82.2114246 384.054188,80.7446745 387.357695,79.2733904 L387.357695,79.2733904 Z M409.18168,69.3892629 L475.206487,75.4353565 L593.033805,86.2285517 L710.872451,97.0194799 L785.84482,103.888495 L786.605591,105.26074 C787.361052,106.637943 788.101537,108.029174 788.835649,109.42678 L788.835649,109.42678 L710.392106,102.247186 L592.555725,91.4562576 L474.728408,80.6630624 L399.54079,73.7781782 C402.74007,72.3272971 405.962008,70.862814 409.18168,69.3892629 L409.18168,69.3892629 Z M431.053247,59.4983343 L476.287264,63.6514815 L594.114581,74.4424097 L711.941899,85.2333379 L778.249928,91.3089025 L779.150434,92.691561 C780.045558,94.0808789 780.924114,95.488687 781.782278,96.9015958 L781.782278,96.9015958 L711.46382,90.4610439 L593.638768,79.6701157 L475.81145,68.8769205 L421.31946,63.8827157 L424.553566,62.421675 C426.710755,61.4492153 428.871302,60.4784347 431.041918,59.5006013 L431.041918,59.5006013 L431.053247,59.4983343 Z M453.738229,49.6912849 L477.358977,51.8517375 L595.195358,62.6426657 L713.022676,73.4358609 L769.141496,78.5706198 L770.010449,79.6864199 C771.162118,81.1800295 772.285944,82.696563 773.380769,84.2290561 L773.380769,84.2290561 L712.546862,78.6612999 L594.719545,67.8703717 L476.878632,57.0794435 L443.508236,54.0167242 L446.049767,52.9236043 C448.594202,51.8341682 451.147877,50.7562089 453.715571,49.6935519 L453.715571,49.6935519 L453.738229,49.6912849 Z M478.145203,40.0406585 L478.44202,40.0655955 L596.267072,50.8565238 L714.105718,61.649719 L758.102619,65.678181 L759.149464,66.8036114 C760.539964,68.312165 761.909582,69.852638 763.261799,71.4250304 L763.261799,71.4250304 L713.627639,66.8751579 L595.788992,56.0842297 L477.961675,45.2933015 L467.042885,44.2890198 L469.806958,43.2072703 C472.575068,42.1319676 475.354329,41.0761116 478.13614,40.0406585 L478.13614,40.0406585 L478.145203,40.0406585 Z M505.194075,30.6303344 L597.350114,39.0726488 L715.177432,49.863577 L744.433173,52.543173 L745.741271,53.680827 C747.480375,55.2092577 749.199467,56.7838265 750.899707,58.4033725 L750.899707,58.4033725 L714.699352,55.091283 L596.872035,44.2980878 L492.795731,34.7630785 L495.883351,33.705168 C498.974228,32.6554753 502.074664,31.6306489 505.182746,30.6326014 L505.182746,30.6326014 L505.194075,30.6303344 Z M536.570586,21.6144685 L598.433157,27.2842398 L716.260474,38.075168 L726.447418,39.0046387 L726.458747,39.0137067 L727.714325,39.8392787 C730.219709,41.5035223 732.690611,43.2465228 735.129884,45.0711353 L735.129884,45.0711353 L715.780129,43.302874 L597.952811,32.5096788 L521.965373,25.5522505 L524.393533,24.8572256 C528.44267,23.71176 532.501247,22.6308409 536.545663,21.6144685 L536.545663,21.6144685 L536.570586,21.6144685 Z M577.320626,13.4555293 L599.500339,15.4867628 L699.085868,24.6091778 L700.664121,25.268443 C704.864136,27.0494792 708.995127,29.014214 713.06346,31.1562788 L713.06346,31.1562788 L599.024525,20.7122018 L557.3863,16.8991049 C564.049957,15.5638409 570.700019,14.403136 577.320626,13.4555293 L577.320626,13.4555293 Z M620.821321,10.1751778 L622.329688,10.1795706 C638.40763,10.2733771 654.121959,11.8725438 669.290871,15.2623297 L669.290871,15.2623297 L614.574568,10.2477219 C616.661351,10.2001148 618.745868,10.1751778 620.821321,10.1751778 L620.821321,10.1751778 Z" id="Combined-Shape" fill="url(#linearGradient-1)"></path>
            <path d="M213.467082,0.174106742 C169.259515,0.314648831 124.501647,17.6330611 100.460485,54.0787982 L100.460485,54.0787982 C74.9359992,92.7641416 77.5765413,143.164348 84.6557306,188.981069 L84.6557306,188.981069 C92.6022677,240.428541 99.3961154,286.635153 86.6916202,337.835542 L86.6916202,337.835542 C77.7350644,373.936725 65.7122187,409.312528 58.9296941,445.948677 L58.9296941,445.948677 C44.975131,521.299638 63.8778798,582.566922 151.538896,580.039431 L151.538896,580.039431 C189.74976,578.940029 226.873608,564.761146 262.129148,551.146698 L262.129148,551.146698 C285.819295,542.004662 314.434981,526.907721 340.496181,530.348735 L340.496181,530.348735 C365.207669,533.612939 382.160584,553.282031 399.978582,565.978422 L399.978582,565.978422 C429.658638,587.127739 463.652787,602.029734 504.121472,603.285546 L504.121472,603.285546 C621.131911,606.916972 727.822494,509.632378 744.76635,413.102631 L744.76635,413.102631 C765.102601,297.266482 662.880104,221.897386 560.089189,174.085874 L560.089189,174.085874 C519.661267,155.280436 479.346575,139.877477 442.813791,113.917993 L442.813791,113.917993 C387.330702,74.4868696 334.19149,27.6772868 268.141703,8.46382317 L268.141703,8.46382317 C259.124003,5.83885964 249.868518,3.73299512 240.334485,2.22556788 L240.334485,2.22556788 C231.862557,0.888151226 223.207195,0.199041629 214.517864,0.174106742 L214.517864,0.174106742 L213.467082,0.174106742 Z" id="Fill-190" fill="url(#linearGradient-2)"></path>
        </g>
    </g>
</svg>