<svg id="visual" viewBox="0 0 900 600" width="900" height="600" xmlns="http://www.w3.org/2000/svg" xmlns:xlink="http://www.w3.org/1999/xlink" version="1.1"><rect x="0" y="0" width="900" height="600" fill="#ffffff"></rect><path d="M402 0L389.5 16.7C377 33.3 352 66.7 349 100C346 133.3 365 166.7 381.5 200C398 233.3 412 266.7 415.3 300C418.7 333.3 411.3 366.7 395.8 400C380.3 433.3 356.7 466.7 337.7 500C318.7 533.3 304.3 566.7 297.2 583.3L290 600L0 600L0 583.3C0 566.7 0 533.3 0 500C0 466.7 0 433.3 0 400C0 366.7 0 333.3 0 300C0 266.7 0 233.3 0 200C0 166.7 0 133.3 0 100C0 66.7 0 33.3 0 16.7L0 0Z" fill="#e3e8e6" stroke-linecap="round" stroke-linejoin="miter"></path></svg>