<svg id="visual" viewBox="0 0 1800 900" width="1800" height="900" xmlns="http://www.w3.org/2000/svg" xmlns:xlink="http://www.w3.org/1999/xlink" version="1.1"><rect x="0" y="0" width="1800" height="900" fill="#ffffff"></rect><defs><linearGradient id="grad1_0" x1="50%" y1="100%" x2="100%" y2="0%"><stop offset="10%" stop-color="#ffffff" stop-opacity="1"></stop><stop offset="90%" stop-color="#ffffff" stop-opacity="1"></stop></linearGradient></defs><defs><linearGradient id="grad2_0" x1="0%" y1="100%" x2="50%" y2="0%"><stop offset="10%" stop-color="#ffffff" stop-opacity="1"></stop><stop offset="90%" stop-color="#ffffff" stop-opacity="1"></stop></linearGradient></defs><g transform="translate(1800, 900)"><path d="M-855 0C-842.3 -166.3 -829.6 -332.6 -740.5 -427.5C-651.3 -522.4 -485.7 -546 -349.5 -605.4C-213.3 -664.7 -106.7 -759.9 0 -855L0 0Z" fill="#41b294"></path></g><g transform="translate(0, 0)"><path d="M855 0C840.6 163.4 826.3 326.8 740.5 427.5C654.6 528.2 497.3 566.2 362 627C226.7 687.8 113.3 771.4 0 855L0 0Z" fill="#41b294"></path></g></svg>