<svg id="visual" viewBox="0 0 1200 900" width="1200" height="900" xmlns="http://www.w3.org/2000/svg" xmlns:xlink="http://www.w3.org/1999/xlink" version="1.1"><rect x="0" y="0" width="1200" height="900" fill="#ffffff"></rect><defs><linearGradient id="grad1_0" x1="25%" y1="100%" x2="100%" y2="0%"><stop offset="23.333333333333336%" stop-color="#ffffff" stop-opacity="1"></stop><stop offset="76.66666666666666%" stop-color="#ffffff" stop-opacity="1"></stop></linearGradient></defs><defs><linearGradient id="grad2_0" x1="0%" y1="100%" x2="75%" y2="0%"><stop offset="23.333333333333336%" stop-color="#ffffff" stop-opacity="1"></stop><stop offset="76.66666666666666%" stop-color="#ffffff" stop-opacity="1"></stop></linearGradient></defs><g transform="translate(1200, 900)"><path d="M-600 0C-540.8 -56.4 -481.6 -112.9 -461.9 -191.3C-442.3 -269.8 -462.2 -370.3 -424.3 -424.3C-386.3 -478.2 -290.5 -485.7 -210.1 -507.2C-129.7 -528.7 -64.9 -564.4 0 -600L0 0Z" fill="#01877e"></path></g><g transform="translate(0, 0)"><path d="M600 0C590.7 82.7 581.5 165.4 540.5 223.9C499.5 282.3 426.8 316.4 374.1 374.1C321.3 431.7 288.6 512.8 229.6 554.3C170.6 595.9 85.3 597.9 0 600L0 0Z" fill="#01877e"></path></g></svg>